<svg xmlns="http://www.w3.org/2000/svg" width="46.626" height="45.5" viewBox="0 0 46.626 45.5"><defs><style>.a{fill:#0066b9;}</style></defs><path class="a" d="M23.313.8a23.328,23.328,0,0,0-7.358,45.46c1.166.219,1.6-.51,1.6-1.093,0-.51,0-2.04-.073-4.007C11,42.618,9.617,38.028,9.617,38.028c-1.093-2.7-2.623-3.351-2.623-3.351-2.113-1.457.146-1.457.146-1.457a4.863,4.863,0,0,1,3.57,2.4c2.04,3.57,5.464,2.55,6.775,1.894a5.048,5.048,0,0,1,1.457-3.133c-5.1-.51-10.564-2.55-10.564-11.438a8.953,8.953,0,0,1,2.4-6.193A8.681,8.681,0,0,1,11,10.562s1.967-.656,6.411,2.4a22.492,22.492,0,0,1,5.828-.8,19.428,19.428,0,0,1,5.828.8c4.444-2.987,6.338-2.4,6.338-2.4a8.306,8.306,0,0,1,.219,6.193,9.089,9.089,0,0,1,2.4,6.193c0,8.888-5.464,10.928-10.637,11.438a5.769,5.769,0,0,1,1.6,4.3c0,3.133-.073,5.61-.073,6.338,0,.656.437,1.311,1.6,1.093A23.216,23.216,0,0,0,23.313.8Z" transform="translate(0 -0.8)"/></svg>